<svg xmlns="http://www.w3.org/2000/svg" viewBox="0 0 512 432.12"><defs><style>.cls-1{fill:#fff;}</style></defs><g id="Calque_2" data-name="Calque 2"><g id="Capa_1" data-name="Capa 1"><path class="cls-1" d="M509.94,162.47l-91-155.06A15,15,0,0,0,398.5,2L344,33.5,294.84,15.43a56.92,56.92,0,0,0-5.49-1.69,54.81,54.81,0,0,0-41,5.68L167.15,66.3a37.5,37.5,0,1,0,37.5,65l89.1-51.44a30,30,0,0,1,30,0s179.53,103.68,180.11,104l2.67-2.2a15,15,0,0,0,3.41-19.18Z"/><path class="cls-1" d="M487.12,208.77l-178.37-103-89.1,51.44A67.08,67.08,0,0,1,186,166.31,68.16,68.16,0,0,1,168.43,164a67.5,67.5,0,0,1-24-118.44L107.63,24.3a15,15,0,0,0-20.72,5.9L1.78,188.91A15,15,0,0,0,7.5,209l7.8,4.5L29,189.78a63.85,63.85,0,0,1,101.9-11.58,63.71,63.71,0,0,1,83.35,43.39c.48,1.81.87,3.62,1.2,5.45a63.74,63.74,0,0,1,47.25,45.62c.49,1.81.88,3.63,1.2,5.45a63.74,63.74,0,0,1,40.89,94l-18.68,32.37,40.05,23.13a33.75,33.75,0,0,0,33.75-58.46l26,15a33.75,33.75,0,1,0,33.75-58.46l17.32,10a33.75,33.75,0,1,0,33.75-58.46l-17.32-10a33.75,33.75,0,1,0,33.75-58.45Z"/><path class="cls-1" d="M266.44,311a33.76,33.76,0,0,0-46.11,12.35l10-17.32a33.75,33.75,0,0,0-58.45-33.75l10-17.32a33.75,33.75,0,0,0-58.46-33.75l-10,17.32A33.75,33.75,0,0,0,55,204.78L18.72,267.57a33.75,33.75,0,1,0,58.45,33.75,33.75,33.75,0,0,0,58.46,33.75,33.75,33.75,0,1,0,58.45,33.75,33.75,33.75,0,0,0,58.46,33.75l26.25-45.47A33.75,33.75,0,0,0,266.44,311Z"/></g></g></svg>