<svg xmlns="http://www.w3.org/2000/svg" viewBox="0 0 329.48 512"><defs><style>.cls-1{fill:#fff;}</style></defs><g id="Calque_2" data-name="Calque 2"><g id="Capa_1" data-name="Capa 1"><path class="cls-1" d="M167.41,138.15,148,9.09A10.64,10.64,0,0,0,137.5,0h-.36a10.6,10.6,0,0,0-10.26,9.77l-9.35,112.07c-.57,6.91-12.84,6.91-13.42,0L94.79,9.77a10.66,10.66,0,0,0-21.25,0L64.2,121.84c-.58,6.91-12.84,6.91-13.42,0L41.46,9.77A10.69,10.69,0,0,0,31.17,0h-.34A10.64,10.64,0,0,0,20.29,9.09L.94,138.15a83.46,83.46,0,0,0,49.43,89.09L33.9,458.07A50.36,50.36,0,0,0,84.12,512h.09a50.36,50.36,0,0,0,50.24-53.93L118,227.24A83.46,83.46,0,0,0,167.41,138.15Z"/><path class="cls-1" d="M325,2A10.73,10.73,0,0,0,315.27.62c-.92.32-92.44,33.94-92.44,138,0,74.94,24.39,112.79,38.1,128.15l-13.65,13.65a10.56,10.56,0,0,0-3.07,6.48L227.33,455.72a51.2,51.2,0,1,0,102.15,5.08V10.67A10.59,10.59,0,0,0,325,2Z"/></g></g></svg>