<svg xmlns="http://www.w3.org/2000/svg" viewBox="0 0 512 390"><defs><style>.cls-1{fill:#7e7e7e;}</style></defs><g id="Calque_2" data-name="Calque 2"><g id="Capa_1" data-name="Capa 1"><path class="cls-1" d="M467,0H165a45,45,0,0,0,0,90H467a45,45,0,0,0,0-90Z"/><path class="cls-1" d="M467,150H165a45,45,0,0,0,0,90H467a45,45,0,0,0,0-90Z"/><path class="cls-1" d="M467,300H165a45,45,0,0,0,0,90H467a45,45,0,0,0,0-90Z"/><path class="cls-1" d="M45,0A45,45,0,1,0,90,45,45,45,0,0,0,45,0Z"/><path class="cls-1" d="M45,150a45,45,0,1,0,45,45A45,45,0,0,0,45,150Z"/><path class="cls-1" d="M45,300a45,45,0,1,0,45,45A45,45,0,0,0,45,300Z"/></g></g></svg>