<svg id="Calque_1" data-name="Calque 1" xmlns="http://www.w3.org/2000/svg" viewBox="0 0 477.87 477.87"><defs><style>.cls-1{fill:#9356dc;}</style></defs><g id="Calque_2" data-name="Calque 2"><g id="Capa_1" data-name="Capa 1"><path class="cls-1" d="M477,114.07,442.86,11.67A17.06,17.06,0,0,0,426.67,0H51.2A17.08,17.08,0,0,0,35,11.67L.87,114.07A17.2,17.2,0,0,0,0,119v17.52a85,85,0,0,0,34.13,67.89V426.67a51.22,51.22,0,0,0,51.2,51.2h307.2a51.2,51.2,0,0,0,51.2-51.2h0V204.43a85,85,0,0,0,34.14-67.9V119A17.55,17.55,0,0,0,477,114.07ZM358.4,34.13h56l22.77,68.27H358.4Zm-102.4,0h68.27V102.4H256Zm-102.4,0h68.27V102.4H153.6Zm-90.09,0h56V102.4H40.74Zm209.56,409.6H204.8V307.2h68.27ZM409.6,426.67a17.06,17.06,0,0,1-17.06,17.06H307.2V290.13a17.06,17.06,0,0,0-17.06-17.06H187.73a17.06,17.06,0,0,0-17.06,17.06v153.6H85.33a17.06,17.06,0,0,1-17.06-17.06V220.16a84.33,84.33,0,0,0,68.26-15.67,86.48,86.48,0,0,0,102.4,0,86.48,86.48,0,0,0,102.4,0,84.35,84.35,0,0,0,68.27,15.67V426.67ZM392.53,187.73A50.42,50.42,0,0,1,354.18,170a17.05,17.05,0,0,0-24.07-1.63h0a15.49,15.49,0,0,0-1.62,1.62,51.5,51.5,0,0,1-72.71,4,53.91,53.91,0,0,1-4-4,17.63,17.63,0,0,0-24.93-.76h0c-.26.25-.51.5-.76.76a51.5,51.5,0,0,1-72.71,4,53.91,53.91,0,0,1-4-4,17.63,17.63,0,0,0-24.93-.76h0l-.76.76a50.45,50.45,0,0,1-38.35,17.71,51.2,51.2,0,0,1-51.2-51.2h409.6a51.2,51.2,0,0,1-51.18,51.22Z" transform="translate(0 0)"/></g></g></svg>